{"title":"A.Little.Bit.Zombie.2012 BRRip XviD juggs","uid":8265528,"size":749057905,"categoryP":"video","categoryS":"movies","magnet":"?xt=urn:btih:6af8aabb84c361dc9975e1650d74f05e9a087416&amp;dn=A.Little.Bit.Zombie.2012+BRRip+XviD+juggs&amp;tr=udp%3A%2F%2Ftracker.openbittorrent.com%3A80&amp;tr=udp%3A%2F%2Fopen.demonii.com%3A1337&amp;tr=udp%3A%2F%2Ftracker.coppersurfer.tk%3A6969&amp;tr=udp%3A%2F%2Fexodus.desync.com%3A6969","seeders":2,"leechers":0,"uploader":"juggs99","files":3,"time":1363484311,"description":"Format : AVI\nFormat/Info : Audio Video Interleave\nFile size : 709 MiB\nDuration : 1h 27mn\nOverall bit rate : 1 132 Kbps\nWriting library : VirtualDub build 32842/release\n\nVideo\nID : 0\nFormat : MPEG-4 Visual\nFormat profile : Advanced Simple@L5\nFormat settings, BVOP : 4\nFormat settings, QPel : No\nFormat settings, GMC : No warppoints\nFormat settings, Matrix : Default (H.263)\nMuxing mode : Packed bitstream\nCodec ID : XVID\nCodec ID/Hint : XviD\nDuration : 1h 27mn\nBit rate : 995 Kbps\nWidth : 640 pixels\nHeight : 352 pixels\nDisplay aspect ratio : 16:9\nFrame rate : 23.976 fps\nColor space : YUV\nChroma subsampling : 4:2:0\nBit depth : 8 bits\nScan type : Progressive\nCompression mode : Lossy\nBits/(Pixel*Frame) : 0.184\nStream size : 623 MiB (88%)\nWriting library : XviD 64\n\nAudio\nID : 1\nFormat : MPEG Audio\nFormat version : Version 1\nFormat profile : Layer 3\nCodec ID : 55\nCodec ID/Hint : MP3\nDuration : 1h 27mn\nBit rate mode : Constant\nBit rate : 128 Kbps\nChannel(s) : 2 channels\nSampling rate : 44.1 KHz\nCompression mode : Lossy\nStream size : 80.2 MiB (11%)\nAlignment : Split accross interleaves\nInterleave, duration : 42 ms (1.00 video frame)\nInterleave, preload duration : 500 ms\nWriting library : LAME3.99r\nEncoding settings : -m s -V 4 -q 3 -lowpass 17 -b 128\n\nPlot\nInfected by a virus, a mild mannered HR manager attempts to fulfill his overwhelming desire for brains, all while trying to keep it together so as not to incur the wrath of his bridezilla-to-be.\n\n &lt;a href=&quot;\nhttp://www.shotpix.com/images/45583008166357630725.png&quot; rel=&quot;nofollow&quot; target=&quot;_NEW&quot;&gt;\nhttp://www.shotpix.com/images/45583008166357630725.png&lt;/a&gt; &lt;a href=&quot;\nhttp://www.shotpix.com/images/79877208017226694411.png&quot; rel=&quot;nofollow&quot; target=&quot;_NEW&quot;&gt;\nhttp://www.shotpix.com/images/79877208017226694411.png&lt;/a&gt; &lt;a href=&quot;\nhttp://www.shotpix.com/images/27827439616801156507.png&quot; rel=&quot;nofollow&quot; target=&quot;_NEW&quot;&gt;\nhttp://www.shotpix.com/images/27827439616801156507.png&lt;/a&gt; &lt;a href=&quot;\nhttp://www.shotpix.com/images/47494071462818692521.png&quot; rel=&quot;nofollow&quot; target=&quot;_NEW&quot;&gt;\nhttp://www.shotpix.com/images/47494071462818692521.png&lt;/a&gt;","torrent":{"xt":"urn:btih:6af8aabb84c361dc9975e1650d74f05e9a087416","amp;dn":"A.Little.Bit.Zombie.2012+BRRip+XviD+juggs","amp;tr":["udp%3A%2F%2Ftracker.openbittorrent.com%3A80","udp%3A%2F%2Fopen.demonii.com%3A1337","udp%3A%2F%2Ftracker.coppersurfer.tk%3A6969","udp%3A%2F%2Fexodus.desync.com%3A6969"],"infoHash":"6af8aabb84c361dc9975e1650d74f05e9a087416","infoHashBuffer":{"type":"Buffer","data":[106,248,170,187,132,195,97,220,153,117,225,101,13,116,240,94,154,8,116,22]},"announce":[],"urlList":[]}}